<svg style="position: absolute; width: 0; height: 0; overflow: hidden;" version="1.1" xmlns="http://www.w3.org/2000/svg" xmlns:xlink="http://www.w3.org/1999/xlink">
<defs>
<symbol id="icon-heart-o" viewBox="0 0 28 28">
<title>heart-o</title>
<path d="M26 9.312c0-4.391-2.969-5.313-5.469-5.313-2.328 0-4.953 2.516-5.766 3.484-0.375 0.453-1.156 0.453-1.531 0-0.812-0.969-3.437-3.484-5.766-3.484-2.5 0-5.469 0.922-5.469 5.313 0 2.859 2.891 5.516 2.922 5.547l9.078 8.75 9.063-8.734c0.047-0.047 2.938-2.703 2.938-5.563zM28 9.312c0 3.75-3.437 6.891-3.578 7.031l-9.734 9.375c-0.187 0.187-0.438 0.281-0.688 0.281s-0.5-0.094-0.688-0.281l-9.75-9.406c-0.125-0.109-3.563-3.25-3.563-7 0-4.578 2.797-7.313 7.469-7.313 2.734 0 5.297 2.156 6.531 3.375 1.234-1.219 3.797-3.375 6.531-3.375 4.672 0 7.469 2.734 7.469 7.313z"></path>
</symbol>
<symbol id="icon-heart" viewBox="0 0 28 28">
<title>heart</title>
<path d="M14 26c-0.25 0-0.5-0.094-0.688-0.281l-9.75-9.406c-0.125-0.109-3.563-3.25-3.563-7 0-4.578 2.797-7.313 7.469-7.313 2.734 0 5.297 2.156 6.531 3.375 1.234-1.219 3.797-3.375 6.531-3.375 4.672 0 7.469 2.734 7.469 7.313 0 3.75-3.437 6.891-3.578 7.031l-9.734 9.375c-0.187 0.187-0.438 0.281-0.688 0.281z"></path>
</symbol>
<symbol id="icon-minus" viewBox="0 0 24 28">
<title>minus</title>
<path d="M19 15v-2c0-0.547-0.453-1-1-1h-12c-0.547 0-1 0.453-1 1v2c0 0.547 0.453 1 1 1h12c0.547 0 1-0.453 1-1zM24 14c0 6.625-5.375 12-12 12s-12-5.375-12-12 5.375-12 12-12 12 5.375 12 12z"></path>
</symbol>
<symbol id="icon-plus" viewBox="0 0 24 28">
<title>plus</title>
<path d="M19 15v-2c0-0.547-0.453-1-1-1h-4v-4c0-0.547-0.453-1-1-1h-2c-0.547 0-1 0.453-1 1v4h-4c-0.547 0-1 0.453-1 1v2c0 0.547 0.453 1 1 1h4v4c0 0.547 0.453 1 1 1h2c0.547 0 1-0.453 1-1v-4h4c0.547 0 1-0.453 1-1zM24 14c0 6.625-5.375 12-12 12s-12-5.375-12-12 5.375-12 12-12 12 5.375 12 12z"></path>
</symbol>
<symbol id="icon-arrow-right" viewBox="0 0 23 28">
<title>arrow-right</title>
<path d="M23 15c0 0.531-0.203 1.047-0.578 1.422l-10.172 10.172c-0.375 0.359-0.891 0.578-1.422 0.578s-1.031-0.219-1.406-0.578l-1.172-1.172c-0.375-0.375-0.594-0.891-0.594-1.422s0.219-1.047 0.594-1.422l4.578-4.578h-11c-1.125 0-1.828-0.938-1.828-2v-2c0-1.062 0.703-2 1.828-2h11l-4.578-4.594c-0.375-0.359-0.594-0.875-0.594-1.406s0.219-1.047 0.594-1.406l1.172-1.172c0.375-0.375 0.875-0.594 1.406-0.594s1.047 0.219 1.422 0.594l10.172 10.172c0.375 0.359 0.578 0.875 0.578 1.406z"></path>
</symbol>
<symbol id="icon-coffee" viewBox="0 0 29 28">
<title>coffee</title>
<path d="M26 10c0-1.656-1.344-3-3-3h-1v6h1c1.656 0 3-1.344 3-3zM0 22h28c0 2.203-1.797 4-4 4h-20c-2.203 0-4-1.797-4-4zM29 10c0 3.313-2.688 6-6 6h-1v0.5c0 1.922-1.578 3.5-3.5 3.5h-11c-1.922 0-3.5-1.578-3.5-3.5v-11.5c0-0.547 0.453-1 1-1h18c3.313 0 6 2.688 6 6z"></path>
</symbol>
<symbol id="icon-star-o" viewBox="0 0 26 28">
<title>star-o</title>
<path d="M17.766 15.687l4.781-4.641-6.594-0.969-2.953-5.969-2.953 5.969-6.594 0.969 4.781 4.641-1.141 6.578 5.906-3.109 5.891 3.109zM26 10.109c0 0.281-0.203 0.547-0.406 0.75l-5.672 5.531 1.344 7.812c0.016 0.109 0.016 0.203 0.016 0.313 0 0.422-0.187 0.781-0.641 0.781-0.219 0-0.438-0.078-0.625-0.187l-7.016-3.687-7.016 3.687c-0.203 0.109-0.406 0.187-0.625 0.187-0.453 0-0.656-0.375-0.656-0.781 0-0.109 0.016-0.203 0.031-0.313l1.344-7.812-5.688-5.531c-0.187-0.203-0.391-0.469-0.391-0.75 0-0.469 0.484-0.656 0.875-0.719l7.844-1.141 3.516-7.109c0.141-0.297 0.406-0.641 0.766-0.641s0.625 0.344 0.766 0.641l3.516 7.109 7.844 1.141c0.375 0.063 0.875 0.25 0.875 0.719z"></path>
</symbol>
<symbol id="icon-star" viewBox="0 0 26 28">
<title>star</title>
<path d="M26 10.109c0 0.281-0.203 0.547-0.406 0.75l-5.672 5.531 1.344 7.812c0.016 0.109 0.016 0.203 0.016 0.313 0 0.406-0.187 0.781-0.641 0.781-0.219 0-0.438-0.078-0.625-0.187l-7.016-3.687-7.016 3.687c-0.203 0.109-0.406 0.187-0.625 0.187-0.453 0-0.656-0.375-0.656-0.781 0-0.109 0.016-0.203 0.031-0.313l1.344-7.812-5.688-5.531c-0.187-0.203-0.391-0.469-0.391-0.75 0-0.469 0.484-0.656 0.875-0.719l7.844-1.141 3.516-7.109c0.141-0.297 0.406-0.641 0.766-0.641s0.625 0.344 0.766 0.641l3.516 7.109 7.844 1.141c0.375 0.063 0.875 0.25 0.875 0.719z"></path>
</symbol>
<symbol id="icon-skype" viewBox="0 0 24 28">
<title>skype</title>
<path d="M18.328 16.609c0-2.719-2.641-3.656-4.859-4.156l-1.625-0.375c-1.188-0.281-2.078-0.484-2.078-1.391 0-0.828 0.875-1.203 2.25-1.203 2.453 0 2.5 1.797 4.016 1.797 1.016 0 1.625-0.797 1.625-1.703 0-1.797-2.984-2.969-5.938-2.969-2.703 0-5.844 1.172-5.844 4.344 0 2.625 1.75 3.563 4.031 4.109l2.281 0.562c1.391 0.344 2.25 0.5 2.25 1.5 0 0.797-0.891 1.406-2.266 1.406-2.891 0-3.047-2.406-4.719-2.406-1.094 0-1.578 0.781-1.578 1.641 0 1.922 2.938 3.484 6.453 3.484 2.938 0 6-1.469 6-4.641zM24 20c0 3.313-2.688 6-6 6-1.375 0-2.641-0.469-3.656-1.25-0.75 0.156-1.547 0.25-2.344 0.25-6.078 0-11-4.922-11-11 0-0.797 0.094-1.594 0.25-2.344-0.781-1.016-1.25-2.281-1.25-3.656 0-3.313 2.688-6 6-6 1.375 0 2.641 0.469 3.656 1.25 0.75-0.156 1.547-0.25 2.344-0.25 6.078 0 11 4.922 11 11 0 0.797-0.094 1.594-0.25 2.344 0.781 1.016 1.25 2.281 1.25 3.656z"></path>
</symbol>
<symbol id="icon-map-marker" viewBox="0 0 16 28">
<title>map-marker</title>
<path d="M12 10c0-2.203-1.797-4-4-4s-4 1.797-4 4 1.797 4 4 4 4-1.797 4-4zM16 10c0 0.953-0.109 1.937-0.516 2.797l-5.688 12.094c-0.328 0.688-1.047 1.109-1.797 1.109s-1.469-0.422-1.781-1.109l-5.703-12.094c-0.406-0.859-0.516-1.844-0.516-2.797 0-4.422 3.578-8 8-8s8 3.578 8 8z"></path>
</symbol>
<symbol id="icon-credit-card-alt" viewBox="0 0 36 28">
<title>credit-card-alt</title>
<path d="M0 23.5v-9.5h36v9.5c0 1.375-1.125 2.5-2.5 2.5h-31c-1.375 0-2.5-1.125-2.5-2.5zM10 20v2h6v-2h-6zM4 20v2h4v-2h-4zM33.5 2c1.375 0 2.5 1.125 2.5 2.5v3.5h-36v-3.5c0-1.375 1.125-2.5 2.5-2.5h31z"></path>
</symbol>
<symbol id="icon-truck" viewBox="0 0 29 28">
<title>truck</title>
<path d="M10 22c0-1.094-0.906-2-2-2s-2 0.906-2 2 0.906 2 2 2 2-0.906 2-2zM4 14h6v-4h-2.469c-0.063 0-0.297 0.094-0.344 0.141l-3.047 3.047c-0.047 0.047-0.141 0.281-0.141 0.344v0.469zM24 22c0-1.094-0.906-2-2-2s-2 0.906-2 2 0.906 2 2 2 2-0.906 2-2zM28 5v16c0 1.156-1.219 1-2 1 0 2.203-1.797 4-4 4s-4-1.797-4-4h-6c0 2.203-1.797 4-4 4s-4-1.797-4-4h-1c-0.781 0-2 0.156-2-1 0-0.547 0.453-1 1-1v-5c0-1.109-0.156-2.344 0.703-3.203l3.094-3.094c0.391-0.391 1.141-0.703 1.703-0.703h2.5v-3c0-0.547 0.453-1 1-1h16c0.547 0 1 0.453 1 1z"></path>
</symbol>
<symbol id="icon-mobile" viewBox="0 0 12 28">
<title>mobile</title>
<path d="M7.25 22c0-0.688-0.562-1.25-1.25-1.25s-1.25 0.562-1.25 1.25 0.562 1.25 1.25 1.25 1.25-0.562 1.25-1.25zM10.5 19.5v-11c0-0.266-0.234-0.5-0.5-0.5h-8c-0.266 0-0.5 0.234-0.5 0.5v11c0 0.266 0.234 0.5 0.5 0.5h8c0.266 0 0.5-0.234 0.5-0.5zM7.5 6.25c0-0.141-0.109-0.25-0.25-0.25h-2.5c-0.141 0-0.25 0.109-0.25 0.25s0.109 0.25 0.25 0.25h2.5c0.141 0 0.25-0.109 0.25-0.25zM12 6v16c0 1.094-0.906 2-2 2h-8c-1.094 0-2-0.906-2-2v-16c0-1.094 0.906-2 2-2h8c1.094 0 2 0.906 2 2z"></path>
</symbol>
<symbol id="icon-gift" viewBox="0 0 24 28">
<title>gift</title>
<path d="M14.5 21.187v-11.188h-5v11.188c0 0.547 0.453 0.812 1 0.812h3c0.547 0 1-0.266 1-0.812zM7.375 8h3.047l-1.969-2.516c-0.172-0.203-0.547-0.484-1.078-0.484-0.828 0-1.5 0.672-1.5 1.5s0.672 1.5 1.5 1.5zM18.125 6.5c0-0.828-0.672-1.5-1.5-1.5-0.531 0-0.906 0.281-1.078 0.484l-1.953 2.516h3.031c0.828 0 1.5-0.672 1.5-1.5zM24 10.5v5c0 0.281-0.219 0.5-0.5 0.5h-1.5v6.5c0 0.828-0.672 1.5-1.5 1.5h-17c-0.828 0-1.5-0.672-1.5-1.5v-6.5h-1.5c-0.281 0-0.5-0.219-0.5-0.5v-5c0-0.281 0.219-0.5 0.5-0.5h6.875c-1.937 0-3.5-1.563-3.5-3.5s1.563-3.5 3.5-3.5c1.047 0 2.016 0.438 2.625 1.203l2 2.578 2-2.578c0.609-0.766 1.578-1.203 2.625-1.203 1.937 0 3.5 1.563 3.5 3.5s-1.563 3.5-3.5 3.5h6.875c0.281 0 0.5 0.219 0.5 0.5z"></path>
</symbol>
<symbol id="icon-email" viewBox="0 0 28 28">
<title>email</title>
<path d="M28 11.094v12.406c0 1.375-1.125 2.5-2.5 2.5h-23c-1.375 0-2.5-1.125-2.5-2.5v-12.406c0.469 0.516 1 0.969 1.578 1.359 2.594 1.766 5.219 3.531 7.766 5.391 1.313 0.969 2.938 2.156 4.641 2.156h0.031c1.703 0 3.328-1.188 4.641-2.156 2.547-1.844 5.172-3.625 7.781-5.391 0.562-0.391 1.094-0.844 1.563-1.359zM28 6.5c0 1.75-1.297 3.328-2.672 4.281-2.438 1.687-4.891 3.375-7.313 5.078-1.016 0.703-2.734 2.141-4 2.141h-0.031c-1.266 0-2.984-1.437-4-2.141-2.422-1.703-4.875-3.391-7.297-5.078-1.109-0.75-2.688-2.516-2.688-3.938 0-1.531 0.828-2.844 2.5-2.844h23c1.359 0 2.5 1.125 2.5 2.5z"></path>
</symbol>
<symbol id="icon-question" viewBox="0 0 17 28">
<title>question</title>
<path d="M11 19.625v3.75q0 0.25-0.187 0.438t-0.438 0.187h-3.75q-0.25 0-0.438-0.187t-0.187-0.438v-3.75q0-0.25 0.187-0.438t0.438-0.187h3.75q0.25 0 0.438 0.187t0.187 0.438zM15.937 10.25q0 0.844-0.242 1.578t-0.547 1.195-0.859 0.93-0.898 0.68-0.953 0.555q-0.641 0.359-1.070 1.016t-0.43 1.047q0 0.266-0.187 0.508t-0.438 0.242h-3.75q-0.234 0-0.398-0.289t-0.164-0.586v-0.703q0-1.297 1.016-2.445t2.234-1.695q0.922-0.422 1.313-0.875t0.391-1.188q0-0.656-0.727-1.156t-1.68-0.5q-1.016 0-1.687 0.453-0.547 0.391-1.672 1.797-0.203 0.25-0.484 0.25-0.187 0-0.391-0.125l-2.562-1.953q-0.203-0.156-0.242-0.391t0.086-0.438q2.5-4.156 7.25-4.156 1.25 0 2.516 0.484t2.281 1.297 1.656 1.992 0.641 2.477z"></path>
</symbol>
<symbol id="icon-truck2" viewBox="0 0 29 28">
<title>truck2</title>
<path d="M10 22q0-0.812-0.594-1.406t-1.406-0.594-1.406 0.594-0.594 1.406 0.594 1.406 1.406 0.594 1.406-0.594 0.594-1.406zM4 14h6v-4h-2.469q-0.203 0-0.344 0.141l-3.047 3.047q-0.141 0.141-0.141 0.344v0.469zM24 22q0-0.812-0.594-1.406t-1.406-0.594-1.406 0.594-0.594 1.406 0.594 1.406 1.406 0.594 1.406-0.594 0.594-1.406zM28 5v16q0 0.234-0.063 0.414t-0.211 0.289-0.258 0.18-0.367 0.094-0.352 0.031-0.398 0-0.352-0.008q0 1.656-1.172 2.828t-2.828 1.172-2.828-1.172-1.172-2.828h-6q0 1.656-1.172 2.828t-2.828 1.172-2.828-1.172-1.172-2.828h-1q-0.047 0-0.352 0.008t-0.398 0-0.352-0.031-0.367-0.094-0.258-0.18-0.211-0.289-0.063-0.414q0-0.406 0.297-0.703t0.703-0.297v-5q0-0.125-0.008-0.547t0-0.594 0.039-0.539 0.102-0.578 0.219-0.477 0.352-0.469l3.094-3.094q0.297-0.297 0.789-0.5t0.914-0.203h2.5v-3q0-0.406 0.297-0.703t0.703-0.297h16q0.406 0 0.703 0.297t0.297 0.703z"></path>
</symbol>
<symbol id="icon-odnoklassniki" viewBox="0 0 20 28">
<title>odnoklassniki</title>
<path d="M10 14.172q-2.938 0-5.016-2.078t-2.078-5q0-2.938 2.078-5.016t5.016-2.078 5.016 2.078 2.078 5.016q0 2.922-2.078 5t-5.016 2.078zM10 3.594q-1.437 0-2.461 1.023t-1.023 2.477q0 1.437 1.023 2.461t2.461 1.023 2.461-1.023 1.023-2.461q0-1.453-1.023-2.477t-2.461-1.023zM18.172 15.031q0.203 0.422 0.234 0.773t-0.070 0.633-0.414 0.602-0.664 0.578-0.961 0.648q-1.797 1.141-4.922 1.469l1.141 1.125 4.172 4.172q0.469 0.484 0.469 1.156t-0.469 1.141l-0.187 0.203q-0.484 0.469-1.156 0.469t-1.156-0.469q-1.047-1.062-4.172-4.188l-4.172 4.188q-0.484 0.469-1.156 0.469t-1.141-0.469l-0.187-0.203q-0.484-0.469-0.484-1.141t0.484-1.156l5.297-5.297q-3.172-0.328-4.953-1.469-0.609-0.391-0.961-0.648t-0.664-0.578-0.414-0.602-0.070-0.633 0.234-0.773q0.156-0.313 0.438-0.547t0.656-0.344 0.875 0.031 1.016 0.547q0.078 0.063 0.234 0.172t0.672 0.383 1.078 0.477 1.437 0.375 1.766 0.172q1.422 0 2.719-0.398t1.875-0.789l0.594-0.391q0.516-0.406 1.016-0.547t0.875-0.031 0.656 0.344 0.438 0.547z"></path>
</symbol>
<symbol id="icon-paper-plane" viewBox="0 0 28 28">
<title>paper-plane</title>
<path d="M27.563 0.172q0.516 0.375 0.422 1l-4 24q-0.078 0.453-0.5 0.703-0.219 0.125-0.484 0.125-0.172 0-0.375-0.078l-7.078-2.891-3.781 4.609q-0.281 0.359-0.766 0.359-0.203 0-0.344-0.063-0.297-0.109-0.477-0.367t-0.18-0.57v-5.453l13.5-16.547-16.703 14.453-6.172-2.531q-0.578-0.219-0.625-0.859-0.031-0.625 0.5-0.922l26-15q0.234-0.141 0.5-0.141 0.313 0 0.562 0.172z"></path>
</symbol>
<symbol id="icon-angle-down" viewBox="0 0 18 28">
<title>angle-down</title>
<path d="M16.797 11.5q0 0.203-0.156 0.359l-7.281 7.281q-0.156 0.156-0.359 0.156t-0.359-0.156l-7.281-7.281q-0.156-0.156-0.156-0.359t0.156-0.359l0.781-0.781q0.156-0.156 0.359-0.156t0.359 0.156l6.141 6.141 6.141-6.141q0.156-0.156 0.359-0.156t0.359 0.156l0.781 0.781q0.156 0.156 0.156 0.359z"></path>
</symbol>
<symbol id="icon-angle-right" viewBox="0 0 9 28">
<title>angle-right</title>
<path d="M9.297 15q0 0.203-0.156 0.359l-7.281 7.281q-0.156 0.156-0.359 0.156t-0.359-0.156l-0.781-0.781q-0.156-0.156-0.156-0.359t0.156-0.359l6.141-6.141-6.141-6.141q-0.156-0.156-0.156-0.359t0.156-0.359l0.781-0.781q0.156-0.156 0.359-0.156t0.359 0.156l7.281 7.281q0.156 0.156 0.156 0.359z"></path>
</symbol>
<symbol id="icon-angle-left" viewBox="0 0 11 28">
<title>angle-left</title>
<path d="M9.797 8.5q0 0.203-0.156 0.359l-6.141 6.141 6.141 6.141q0.156 0.156 0.156 0.359t-0.156 0.359l-0.781 0.781q-0.156 0.156-0.359 0.156t-0.359-0.156l-7.281-7.281q-0.156-0.156-0.156-0.359t0.156-0.359l7.281-7.281q0.156-0.156 0.359-0.156t0.359 0.156l0.781 0.781q0.156 0.156 0.156 0.359z"></path>
</symbol>
<symbol id="icon-angle-up" viewBox="0 0 18 28">
<title>angle-up</title>
<path d="M16.797 18.5q0 0.203-0.156 0.359l-0.781 0.781q-0.156 0.156-0.359 0.156t-0.359-0.156l-6.141-6.141-6.141 6.141q-0.156 0.156-0.359 0.156t-0.359-0.156l-0.781-0.781q-0.156-0.156-0.156-0.359t0.156-0.359l7.281-7.281q0.156-0.156 0.359-0.156t0.359 0.156l7.281 7.281q0.156 0.156 0.156 0.359z"></path>
</symbol>
<symbol id="icon-youtube" viewBox="0 0 24 28">
<title>youtube</title>
<path d="M15.172 19.437v3.297q0 1.047-0.609 1.047-0.359 0-0.703-0.344v-4.703q0.344-0.344 0.703-0.344 0.609 0 0.609 1.047zM20.453 19.453v0.719h-1.406v-0.719q0-1.062 0.703-1.062t0.703 1.062zM5.359 16.047h1.672v-1.469h-4.875v1.469h1.641v8.891h1.563v-8.891zM9.859 24.938h1.391v-7.719h-1.391v5.906q-0.469 0.656-0.891 0.656-0.281 0-0.328-0.328-0.016-0.047-0.016-0.547v-5.688h-1.391v6.109q0 0.766 0.125 1.141 0.187 0.578 0.906 0.578 0.75 0 1.594-0.953v0.844zM16.562 22.625v-3.078q0-1.141-0.141-1.547-0.266-0.875-1.109-0.875-0.781 0-1.453 0.844v-3.391h-1.391v10.359h1.391v-0.75q0.703 0.859 1.453 0.859 0.844 0 1.109-0.859 0.141-0.422 0.141-1.563zM21.844 22.469v-0.203h-1.422q0 0.797-0.031 0.953-0.109 0.562-0.625 0.562-0.719 0-0.719-1.078v-1.359h2.797v-1.609q0-1.234-0.422-1.813-0.609-0.797-1.656-0.797-1.062 0-1.672 0.797-0.438 0.578-0.438 1.813v2.703q0 1.234 0.453 1.813 0.609 0.797 1.687 0.797 1.125 0 1.687-0.828 0.281-0.422 0.328-0.844 0.031-0.141 0.031-0.906zM12.344 8.203v-3.281q0-1.078-0.672-1.078t-0.672 1.078v3.281q0 1.094 0.672 1.094t0.672-1.094zM23.578 19.938q0 3.656-0.406 5.469-0.219 0.922-0.906 1.547t-1.594 0.719q-2.875 0.328-8.672 0.328t-8.672-0.328q-0.906-0.094-1.602-0.719t-0.898-1.547q-0.406-1.75-0.406-5.469 0-3.656 0.406-5.469 0.219-0.922 0.906-1.547t1.609-0.734q2.859-0.313 8.656-0.313t8.672 0.313q0.906 0.109 1.602 0.734t0.898 1.547q0.406 1.75 0.406 5.469zM7.984 0h1.594l-1.891 6.234v4.234h-1.563v-4.234q-0.219-1.156-0.953-3.313-0.578-1.609-1.016-2.922h1.656l1.109 4.109zM13.766 5.203v2.734q0 1.266-0.438 1.844-0.578 0.797-1.656 0.797-1.047 0-1.641-0.797-0.438-0.594-0.438-1.844v-2.734q0-1.25 0.438-1.828 0.594-0.797 1.641-0.797 1.078 0 1.656 0.797 0.438 0.578 0.438 1.828zM19 2.672v7.797h-1.422v-0.859q-0.828 0.969-1.609 0.969-0.719 0-0.922-0.578-0.125-0.375-0.125-1.172v-6.156h1.422v5.734q0 0.516 0.016 0.547 0.047 0.344 0.328 0.344 0.422 0 0.891-0.672v-5.953h1.422z"></path>
</symbol>
<symbol id="icon-vk" viewBox="0 0 30 28">
<title>vk</title>
<path d="M29.953 8.125q0.359 1-2.344 4.594-0.375 0.5-1.016 1.328-1.219 1.563-1.406 2.047-0.266 0.641 0.219 1.266 0.266 0.328 1.266 1.281h0.016l0.063 0.063q2.203 2.047 2.984 3.453 0.047 0.078 0.102 0.195t0.109 0.414-0.008 0.531-0.391 0.43-0.922 0.195l-4 0.063q-0.375 0.078-0.875-0.078t-0.812-0.344l-0.313-0.187q-0.469-0.328-1.094-1t-1.070-1.211-0.953-0.906-0.883-0.242q-0.047 0.016-0.125 0.055t-0.266 0.227-0.336 0.461-0.266 0.812-0.102 1.211q0 0.234-0.055 0.43t-0.117 0.289l-0.063 0.078q-0.281 0.297-0.828 0.344h-1.797q-1.109 0.063-2.281-0.258t-2.055-0.828-1.609-1.031-1.102-0.898l-0.391-0.375q-0.156-0.156-0.43-0.469t-1.117-1.422-1.656-2.359-1.914-3.297-2.039-4.25q-0.094-0.25-0.094-0.422t0.047-0.25l0.063-0.094q0.234-0.297 0.891-0.297l4.281-0.031q0.187 0.031 0.359 0.102t0.25 0.133l0.078 0.047q0.25 0.172 0.375 0.5 0.313 0.781 0.719 1.617t0.641 1.273l0.25 0.453q0.453 0.938 0.875 1.625t0.758 1.070 0.648 0.602 0.531 0.219 0.422-0.078q0.031-0.016 0.078-0.078t0.187-0.344 0.211-0.734 0.148-1.266 0-1.953q-0.031-0.625-0.141-1.141t-0.219-0.719l-0.094-0.187q-0.391-0.531-1.328-0.672-0.203-0.031 0.078-0.375 0.266-0.297 0.594-0.469 0.828-0.406 3.734-0.375 1.281 0.016 2.109 0.203 0.313 0.078 0.523 0.211t0.32 0.375 0.164 0.5 0.055 0.711-0.016 0.859-0.039 1.102-0.023 1.289q0 0.172-0.016 0.656t-0.008 0.75 0.055 0.633 0.18 0.609 0.352 0.383q0.125 0.031 0.266 0.063t0.406-0.172 0.594-0.539 0.812-1.047 1.062-1.68q0.938-1.625 1.672-3.516 0.063-0.156 0.156-0.273t0.172-0.164l0.063-0.047 0.078-0.039t0.203-0.047 0.313-0.008l4.5-0.031q0.609-0.078 1 0.039t0.484 0.258z"></path>
</symbol>
<symbol id="icon-chevron-up" viewBox="0 0 28 28">
<title>chevron-up</title>
<path d="M26.297 20.797l-2.594 2.578q-0.297 0.297-0.703 0.297t-0.703-0.297l-8.297-8.297-8.297 8.297q-0.297 0.297-0.703 0.297t-0.703-0.297l-2.594-2.578q-0.297-0.297-0.297-0.711t0.297-0.711l11.594-11.578q0.297-0.297 0.703-0.297t0.703 0.297l11.594 11.578q0.297 0.297 0.297 0.711t-0.297 0.711z"></path>
</symbol>
<symbol id="icon-search2" viewBox="0 0 26 28">
<title>search2</title>
<path d="M18 13q0-2.891-2.055-4.945t-4.945-2.055-4.945 2.055-2.055 4.945 2.055 4.945 4.945 2.055 4.945-2.055 2.055-4.945zM26 26q0 0.812-0.594 1.406t-1.406 0.594q-0.844 0-1.406-0.594l-5.359-5.344q-2.797 1.937-6.234 1.937-2.234 0-4.273-0.867t-3.516-2.344-2.344-3.516-0.867-4.273 0.867-4.273 2.344-3.516 3.516-2.344 4.273-0.867 4.273 0.867 3.516 2.344 2.344 3.516 0.867 4.273q0 3.437-1.937 6.234l5.359 5.359q0.578 0.578 0.578 1.406z"></path>
</symbol>
<symbol id="icon-chevron-right" viewBox="0 0 19 28">
<title>chevron-right</title>
<path d="M17.297 13.703l-11.594 11.594q-0.297 0.297-0.703 0.297t-0.703-0.297l-2.594-2.594q-0.297-0.297-0.297-0.703t0.297-0.703l8.297-8.297-8.297-8.297q-0.297-0.297-0.297-0.703t0.297-0.703l2.594-2.594q0.297-0.297 0.703-0.297t0.703 0.297l11.594 11.594q0.297 0.297 0.297 0.703t-0.297 0.703z"></path>
</symbol>
<symbol id="icon-chevron-left" viewBox="0 0 21 28">
<title>chevron-left</title>
<path d="M18.297 4.703l-8.297 8.297 8.297 8.297q0.297 0.297 0.297 0.703t-0.297 0.703l-2.594 2.594q-0.297 0.297-0.703 0.297t-0.703-0.297l-11.594-11.594q-0.297-0.297-0.297-0.703t0.297-0.703l11.594-11.594q0.297-0.297 0.703-0.297t0.703 0.297l2.594 2.594q0.297 0.297 0.297 0.703t-0.297 0.703z"></path>
</symbol>
<symbol id="icon-pencil" viewBox="0 0 24 28">
<title>pencil</title>
<path d="M5.672 24l1.422-1.422-3.672-3.672-1.422 1.422v1.672h2v2h1.672zM13.844 9.5q0-0.344-0.344-0.344-0.156 0-0.266 0.109l-8.469 8.469q-0.109 0.109-0.109 0.266 0 0.344 0.344 0.344 0.156 0 0.266-0.109l8.469-8.469q0.109-0.109 0.109-0.266zM13 6.5l6.5 6.5-13 13h-6.5v-6.5zM23.672 8q0 0.828-0.578 1.406l-2.594 2.594-6.5-6.5 2.594-2.578q0.562-0.594 1.406-0.594 0.828 0 1.422 0.594l3.672 3.656q0.578 0.609 0.578 1.422z"></path>
</symbol>
<symbol id="icon-at" viewBox="0 0 24 28">
<title>at</title>
<path d="M15.188 12.109q0-1.687-0.836-2.641t-2.305-0.953q-0.984 0-1.937 0.477t-1.719 1.32-1.242 2.141-0.477 2.812q0 1.75 0.836 2.703t2.352 0.953q1.5 0 2.75-1.039t1.914-2.594 0.664-3.18zM24 14q0 1.734-0.578 3.078t-1.539 2.109-2.055 1.164-2.266 0.43q-0.094 0-0.242 0.008t-0.258 0.008q-1.484 0-2.219-0.828-0.438-0.516-0.516-1.297-0.812 1.031-2.055 1.719t-2.711 0.688q-2.516 0-3.898-1.492t-1.383-4.211q0-2.453 1.031-4.531t2.797-3.289 3.844-1.211q1.359 0 2.422 0.555t1.656 1.555l0.031-0.297 0.172-0.875q0.016-0.094 0.086-0.187t0.148-0.094h1.844q0.078 0 0.203 0.172 0.078 0.078 0.047 0.25l-1.875 9.594q-0.078 0.375-0.078 0.75 0 0.609 0.195 0.812t0.695 0.203q0.438-0.016 0.891-0.086t1.141-0.375 1.203-0.781 0.891-1.398 0.375-2.141q0-4.562-2.719-7.281t-7.281-2.719q-2.031 0-3.883 0.797t-3.187 2.133-2.133 3.187-0.797 3.883 0.797 3.883 2.133 3.187 3.187 2.133 3.883 0.797q3.563 0 6.328-2.25 0.172-0.141 0.375-0.125t0.328 0.187l0.641 0.766q0.125 0.187 0.109 0.375-0.031 0.203-0.187 0.344-1.594 1.297-3.555 2t-4.039 0.703q-2.438 0-4.656-0.953t-3.828-2.562-2.562-3.828-0.953-4.656 0.953-4.656 2.562-3.828 3.828-2.562 4.656-0.953q5.375 0 8.687 3.313t3.313 8.687z"></path>
</symbol>
<symbol id="icon-instagram" viewBox="0 0 24 28">
<title>instagram</title>
<path d="M16 14q0-1.656-1.172-2.828t-2.828-1.172-2.828 1.172-1.172 2.828 1.172 2.828 2.828 1.172 2.828-1.172 1.172-2.828zM18.156 14q0 2.562-1.797 4.359t-4.359 1.797-4.359-1.797-1.797-4.359 1.797-4.359 4.359-1.797 4.359 1.797 1.797 4.359zM19.844 7.594q0 0.594-0.422 1.016t-1.016 0.422-1.016-0.422-0.422-1.016 0.422-1.016 1.016-0.422 1.016 0.422 0.422 1.016zM12 4.156q-0.109 0-1.195-0.008t-1.648 0-1.508 0.047-1.609 0.156-1.117 0.289q-0.781 0.313-1.375 0.906t-0.906 1.375q-0.172 0.453-0.289 1.117t-0.156 1.609-0.047 1.508 0 1.648 0.008 1.195-0.008 1.195 0 1.648 0.047 1.508 0.156 1.609 0.289 1.117q0.313 0.781 0.906 1.375t1.375 0.906q0.453 0.172 1.117 0.289t1.609 0.156 1.508 0.047 1.648 0 1.195-0.008 1.195 0.008 1.648 0 1.508-0.047 1.609-0.156 1.117-0.289q0.781-0.313 1.375-0.906t0.906-1.375q0.172-0.453 0.289-1.117t0.156-1.609 0.047-1.508 0-1.648-0.008-1.195 0.008-1.195 0-1.648-0.047-1.508-0.156-1.609-0.289-1.117q-0.313-0.781-0.906-1.375t-1.375-0.906q-0.453-0.172-1.117-0.289t-1.609-0.156-1.508-0.047-1.648 0-1.195 0.008zM24 14q0 3.578-0.078 4.953-0.156 3.25-1.937 5.031t-5.031 1.937q-1.375 0.078-4.953 0.078t-4.953-0.078q-3.25-0.156-5.031-1.937t-1.937-5.031q-0.078-1.375-0.078-4.953t0.078-4.953q0.156-3.25 1.937-5.031t5.031-1.937q1.375-0.078 4.953-0.078t4.953 0.078q3.25 0.156 5.031 1.937t1.937 5.031q0.078 1.375 0.078 4.953z"></path>
</symbol>
<symbol id="icon-twitter" viewBox="0 0 26 28">
<title>twitter</title>
<path d="M25.312 6.375q-1.047 1.531-2.531 2.609 0.016 0.219 0.016 0.656 0 2.031-0.594 4.055t-1.805 3.883-2.883 3.289-4.031 2.281-5.047 0.852q-4.234 0-7.75-2.266 0.547 0.063 1.219 0.063 3.516 0 6.266-2.156-1.641-0.031-2.938-1.008t-1.781-2.492q0.516 0.078 0.953 0.078 0.672 0 1.328-0.172-1.75-0.359-2.898-1.742t-1.148-3.211v-0.063q1.062 0.594 2.281 0.641-1.031-0.688-1.641-1.797t-0.609-2.406q0-1.375 0.688-2.547 1.891 2.328 4.602 3.727t5.805 1.555q-0.125-0.594-0.125-1.156 0-2.094 1.477-3.57t3.57-1.477q2.188 0 3.687 1.594 1.703-0.328 3.203-1.219-0.578 1.797-2.219 2.781 1.453-0.156 2.906-0.781z"></path>
</symbol>
<symbol id="icon-google-plus" viewBox="0 0 36 28">
<title>google-plus</title>
<path d="M22.453 14.266q0 3.25-1.359 5.789t-3.875 3.969-5.766 1.43q-2.328 0-4.453-0.906t-3.656-2.438-2.438-3.656-0.906-4.453 0.906-4.453 2.438-3.656 3.656-2.438 4.453-0.906q4.469 0 7.672 3l-3.109 2.984q-1.828-1.766-4.562-1.766-1.922 0-3.555 0.969t-2.586 2.633-0.953 3.633 0.953 3.633 2.586 2.633 3.555 0.969q1.297 0 2.383-0.359t1.789-0.898 1.227-1.227 0.766-1.297 0.336-1.156h-6.5v-3.938h10.813q0.187 0.984 0.187 1.906zM36 12.359v3.281h-3.266v3.266h-3.281v-3.266h-3.266v-3.281h3.266v-3.266h3.281v3.266h3.266z"></path>
</symbol>
<symbol id="icon-facebook" viewBox="0 0 16 28">
<title>facebook</title>
<path d="M14.984 0.187v4.125h-2.453q-1.344 0-1.813 0.562t-0.469 1.687v2.953h4.578l-0.609 4.625h-3.969v11.859h-4.781v-11.859h-3.984v-4.625h3.984v-3.406q0-2.906 1.625-4.508t4.328-1.602q2.297 0 3.563 0.187z"></path>
</symbol>
<symbol id="icon-search" viewBox="0 0 38 32">
<title>search</title>
<path d="M15.48 24.751c3.020 0 5.766-1.064 7.894-2.883l9.61 9.61c0.207 0.207 0.481 0.344 0.789 0.344s0.583-0.103 0.789-0.344c0.446-0.446 0.446-1.167 0-1.579l-9.61-9.61c1.785-2.128 2.883-4.907 2.883-7.894 0-6.83-5.56-12.39-12.39-12.39-6.796 0-12.39 5.56-12.39 12.39 0.034 6.796 5.593 12.356 12.423 12.356v0zM15.48 2.238c5.593 0 10.125 4.565 10.125 10.125 0 5.593-4.53 10.125-10.125 10.125s-10.125-4.565-10.125-10.125c0-5.593 4.53-10.125 10.125-10.125v0z"></path>
</symbol>
<symbol id="icon-periscope" viewBox="0 0 32 32">
<title>periscope</title>
<path d="M19.259 25.506c1.447-1.497 2.806-3.375 4.075-5.631 1.266-2.253 1.9-4.238 1.9-5.95 0-2.634-0.897-4.906-2.691-6.816s-3.925-2.866-6.394-2.866c-2.6 0-4.816 0.947-6.641 2.841-1.828 1.894-2.741 4.172-2.741 6.841 0 1.713 0.634 3.697 1.9 5.95 1.266 2.256 2.65 4.131 4.147 5.631s2.609 2.247 3.334 2.247c0.622 0 1.659-0.747 3.109-2.247zM27.337 13.678c0 3.134-1.512 6.691-4.534 10.672-0.516 0.813-1.512 1.981-2.988 3.512s-2.691 2.294-3.65 2.294c-0.884 0-1.972-0.581-3.262-1.741-1.291-1.163-2.525-2.516-3.706-4.066-3.022-3.981-4.534-7.537-4.534-10.672 0-3.281 1.125-6.072 3.372-8.378 2.25-2.303 4.959-3.456 8.131-3.456 3.022 0 5.659 1.181 7.906 3.538 2.175 2.287 3.266 5.053 3.266 8.297zM19.762 9.928c1 1.031 1.5 2.3 1.5 3.809 0 1.356-0.509 2.531-1.525 3.531s-2.216 1.5-3.6 1.5c-1.509 0-2.787-0.491-3.831-1.478-1.047-0.984-1.569-2.169-1.569-3.556 0-1.294 0.369-2.4 1.109-3.325 0 0.584 0.2 1.069 0.6 1.453s0.894 0.578 1.478 0.578c0.584 0 1.078-0.191 1.478-0.578 0.4-0.384 0.6-0.869 0.6-1.453 0-0.894-0.416-1.525-1.247-1.894 0.463-0.094 0.925-0.137 1.384-0.137 1.413 0.003 2.622 0.519 3.622 1.55z"></path>
</symbol>
<symbol id="icon-map-pin" viewBox="0 0 24 32">
<title>map-pin</title>
<path d="M12 0c-6.617 0-12 5.394-12 12.022 0 9.927 11.201 19.459 11.678 19.86 0.093 0.079 0.208 0.118 0.322 0.118s0.226-0.038 0.318-0.114c0.477-0.394 11.682-9.762 11.682-19.864 0-6.628-5.383-12.022-12-12.022zM12.002 30.838c-1.841-1.645-11.002-10.259-11.002-18.816 0-6.078 4.935-11.022 11-11.022s11 4.944 11 11.022c0 8.702-9.152 17.193-10.998 18.816zM12 6c-3.309 0-6 2.691-6 6s2.691 6 6 6 6-2.691 6-6-2.691-6-6-6zM12 17c-2.757 0-5-2.243-5-5s2.243-5 5-5 5 2.243 5 5-2.243 5-5 5z"></path>
</symbol>
<symbol id="icon-telegram" viewBox="0 0 32 32">
<title>telegram</title>
<path d="M31.543 0.16c-0.166-0.107-0.355-0.16-0.543-0.16-0.193 0-0.387 0.055-0.555 0.168l-30 20c-0.309 0.205-0.479 0.566-0.439 0.936 0.038 0.369 0.278 0.688 0.623 0.824l7.824 3.131 3.679 6.438c0.176 0.309 0.503 0.5 0.857 0.504 0.004 0 0.007 0 0.011 0 0.351 0 0.677-0.186 0.857-0.486l2.077-3.463 9.695 3.877c0.119 0.048 0.244 0.071 0.371 0.071 0.17 0 0.338-0.043 0.49-0.129 0.264-0.148 0.445-0.408 0.496-0.707l5-30c0.065-0.393-0.109-0.787-0.443-1.004zM3.136 20.777l23.175-15.451-16.85 18.037c-0.089-0.053-0.168-0.123-0.266-0.162l-6.059-2.424zM10.189 24.066c-0.002-0.004-0.005-0.006-0.007-0.010l18.943-20.275-16.149 25.162-2.787-4.877zM25.217 29.609l-8.541-3.416c-0.203-0.080-0.414-0.107-0.623-0.119l13.152-20.388-3.988 23.923z"></path>
</symbol>
<symbol id="icon-add-to-cart" viewBox="0 0 24 24">
<title>add-to-cart</title>
<path d="M7.172 14.766c0 0.141 0.094 0.234 0.234 0.234h11.578v2.016h-12c-1.078 0-1.969-0.938-1.969-2.016 0-0.328 0.094-0.656 0.234-0.938l1.359-2.484-3.609-7.594h-2.016v-1.969h3.281c0.633 1.32 1.258 2.648 1.875 3.984 0.798 1.67 1.584 3.353 2.391 5.016h7.031c1.284-2.341 2.591-4.659 3.844-7.031l1.734 0.984-3.844 6.984c-0.328 0.609-0.984 1.031-1.734 1.031h-7.453l-0.891 1.641zM17.016 18c1.078 0 1.969 0.938 1.969 2.016s-0.891 1.969-1.969 1.969-2.016-0.891-2.016-1.969 0.938-2.016 2.016-2.016zM6.984 18c1.078 0 2.016 0.938 2.016 2.016s-0.938 1.969-2.016 1.969-1.969-0.891-1.969-1.969 0.891-2.016 1.969-2.016zM11.016 9v-3h-3v-2.016h3v-3h1.969v3h3v2.016h-3v3h-1.969z"></path>
</symbol>
<symbol id="icon-phone" viewBox="0 0 24 24">
<title>phone</title>
<path d="M6.609 10.781c1.453 2.813 3.797 5.156 6.609 6.609l2.203-2.203c0.281-0.281 0.703-0.375 1.031-0.234 1.125 0.375 2.344 0.563 3.563 0.563 0.563 0 0.984 0.422 0.984 0.984v3.516c0 0.563-0.422 0.984-0.984 0.984-9.375 0-17.016-7.641-17.016-17.016 0-0.563 0.422-0.984 0.984-0.984h3.516c0.563 0 0.984 0.422 0.984 0.984 0 1.266 0.188 2.438 0.563 3.563 0.094 0.328 0.047 0.75-0.234 1.031z"></path>
</symbol>
<symbol id="icon-close" viewBox="0 0 24 24">
<title>close</title>
<path d="M18.984 6.422l-5.578 5.578 5.578 5.578-1.406 1.406-5.578-5.578-5.578 5.578-1.406-1.406 5.578-5.578-5.578-5.578 1.406-1.406 5.578 5.578 5.578-5.578z"></path>
</symbol>
<symbol id="icon-paper-clip" viewBox="0 0 24 24">
<title>paper-clip</title>
<path d="M15.797 0q0.977 0 1.875 0.367 0.938 0.375 1.656 1.094 0.727 0.734 1.094 1.648 0.359 0.883 0.359 1.875t-0.359 1.875q-0.367 0.914-1.094 1.648l-9.203 9.203q-0.422 0.422-1 0.664-0.563 0.219-1.125 0.219t-1.125-0.219q-0.578-0.242-1-0.664-0.438-0.438-0.656-0.992-0.219-0.531-0.219-1.125 0-0.602 0.219-1.133 0.219-0.547 0.656-0.992l8.492-8.484q0.297-0.297 0.711-0.297 0.406 0 0.703 0.297t0.297 0.703q0 0.414-0.297 0.711l-8.492 8.484q-0.289 0.289-0.289 0.711 0 0.414 0.289 0.703 0.312 0.297 0.711 0.297t0.711-0.297l9.203-9.203q0.867-0.867 0.867-2.109t-0.867-2.109q-0.891-0.875-2.117-0.875-1.234 0-2.109 0.875l-9.227 9.18q-0.719 0.719-1.094 1.656-0.367 0.898-0.367 1.883 0 0.969 0.367 1.883 0.375 0.93 1.094 1.648 0.742 0.734 1.656 1.102t1.883 0.367 1.883-0.367 1.656-1.102l9.187-9.188q0.297-0.297 0.711-0.297 0.406 0 0.703 0.297t0.297 0.703q0 0.414-0.297 0.711l-9.188 9.188q-1.008 1.008-2.32 1.539-1.25 0.516-2.633 0.516-1.375 0-2.633-0.516-1.313-0.531-2.32-1.539-1-1-1.531-2.313-0.516-1.266-0.516-2.633 0-1.375 0.516-2.633 0.523-1.297 1.531-2.32h0.008l9.219-9.18q0.719-0.719 1.648-1.094 0.914-0.367 1.875-0.367z"></path>
</symbol>
<symbol id="icon-home" viewBox="0 0 20 20">
<title>home</title>
<path d="M18.672 11h-1.672v6c0 0.445-0.194 1-1 1h-4v-6h-4v6h-4c-0.806 0-1-0.555-1-1v-6h-1.672c-0.598 0-0.47-0.324-0.060-0.748l8.024-8.032c0.195-0.202 0.451-0.302 0.708-0.312 0.257 0.010 0.513 0.109 0.708 0.312l8.023 8.031c0.411 0.425 0.539 0.749-0.059 0.749z"></path>
</symbol>
<symbol id="icon-cart" viewBox="0 0 32 32">
<title>cart</title>
<path d="M12 29c0 1.657-1.343 3-3 3s-3-1.343-3-3c0-1.657 1.343-3 3-3s3 1.343 3 3z"></path>
<path d="M32 29c0 1.657-1.343 3-3 3s-3-1.343-3-3c0-1.657 1.343-3 3-3s3 1.343 3 3z"></path>
<path d="M32 16v-12h-24c0-1.105-0.895-2-2-2h-6v2h4l1.502 12.877c-0.915 0.733-1.502 1.859-1.502 3.123 0 2.209 1.791 4 4 4h24v-2h-24c-1.105 0-2-0.895-2-2 0-0.007 0-0.014 0-0.020l26-3.98z"></path>
</symbol>
<symbol id="icon-clock" viewBox="0 0 32 32">
<title>clock</title>
<path d="M20.586 23.414l-6.586-6.586v-8.828h4v7.172l5.414 5.414zM16 0c-8.837 0-16 7.163-16 16s7.163 16 16 16 16-7.163 16-16-7.163-16-16-16zM16 28c-6.627 0-12-5.373-12-12s5.373-12 12-12c6.627 0 12 5.373 12 12s-5.373 12-12 12z"></path>
</symbol>

<symbol id="icon1" viewBox="0 0 54 54">
	<path fill-rule="evenodd" fill="rgb(241, 100, 30)" d="M45.560,37.126 L45.560,48.938 L27.001,48.938 L27.001,37.126 L45.560,37.126 ZM28.688,47.251 L43.873,47.251 L43.873,38.813 L28.688,38.813 L28.688,47.251 ZM40.505,40.502 L42.192,40.502 L42.192,45.564 L40.505,45.564 L40.505,40.502 ZM37.129,40.502 L38.816,40.502 L38.816,45.564 L37.129,45.564 L37.129,40.502 ZM33.752,40.502 L35.439,40.502 L35.439,45.564 L33.752,45.564 L33.752,40.502 ZM30.375,40.502 L32.063,40.502 L32.063,45.564 L30.375,45.564 L30.375,40.502 ZM53.994,18.562 C53.994,23.680 49.831,27.844 44.714,27.844 C41.576,27.844 38.802,26.273 37.121,23.881 L37.121,32.206 C38.103,32.554 38.808,33.492 38.808,34.593 C38.808,35.988 37.673,37.124 36.278,37.124 C34.882,37.124 33.747,35.988 33.747,34.593 L35.434,34.593 C35.434,35.058 35.812,35.436 36.278,35.436 C36.743,35.436 37.121,35.058 37.121,34.593 C37.121,34.128 36.743,33.749 36.278,33.749 L35.434,33.749 L35.434,18.562 L35.434,16.876 L17.718,16.876 L17.718,42.835 L19.403,46.207 L19.403,52.312 L53.993,52.312 L53.993,54.000 L19.403,54.000 L17.716,54.000 L-0.000,54.000 L-0.000,52.312 L9.282,52.312 L9.282,46.207 L10.967,42.835 L10.967,16.876 L9.280,16.876 L9.280,21.093 L3.376,21.093 L3.376,16.876 L1.689,16.876 L1.689,15.188 L3.376,15.188 L3.376,11.811 L5.063,11.811 L5.063,11.812 L10.967,11.812 L10.967,2.882 L1.688,12.162 L1.688,16.875 L0.001,16.875 L0.001,11.462 L11.463,-0.000 L17.101,0.031 L54.000,10.327 L54.000,18.562 L53.994,18.562 ZM7.593,13.500 L5.063,13.500 L5.063,15.188 L7.593,15.188 L7.593,13.500 ZM7.593,16.876 L5.063,16.876 L5.063,19.406 L7.593,19.406 L7.593,16.876 ZM10.967,13.500 L9.280,13.500 L9.280,15.188 L10.967,15.188 L10.967,13.500 ZM16.031,1.687 L12.655,1.687 L12.655,5.035 L16.031,5.035 L16.031,1.687 ZM16.031,6.723 L12.655,6.723 L12.655,8.412 L16.031,8.412 L16.031,6.723 ZM16.031,10.099 L12.655,10.099 L12.655,11.812 L16.031,11.812 L16.031,10.099 ZM16.031,13.500 L12.655,13.500 L12.655,15.188 L16.031,15.188 L16.031,13.500 ZM16.031,16.876 L12.655,16.876 L12.655,18.543 L16.031,18.543 L16.031,16.876 ZM16.031,20.231 L12.655,20.231 L12.655,21.920 L16.031,21.920 L16.031,20.231 ZM16.031,23.607 L12.655,23.607 L12.655,25.296 L16.031,25.296 L16.031,23.607 ZM16.031,26.985 L12.655,26.985 L12.655,28.674 L16.031,28.674 L16.031,26.985 ZM16.031,30.361 L12.655,30.361 L12.655,32.051 L16.031,32.051 L16.031,30.361 ZM16.031,33.739 L12.655,33.739 L12.655,35.428 L16.031,35.428 L16.031,33.739 ZM16.031,37.116 L12.655,37.116 L12.655,38.805 L16.031,38.805 L16.031,37.116 ZM16.031,40.493 L12.655,40.493 L12.655,42.182 L16.031,42.182 L16.031,40.493 ZM17.716,46.605 L16.352,43.875 L12.334,43.875 L10.970,46.605 L10.970,52.312 L17.716,52.312 L17.716,46.605 ZM52.313,11.608 L17.718,1.955 L17.718,11.812 L50.618,11.812 L50.618,13.500 L17.718,13.500 L17.718,15.188 L52.309,15.188 L52.309,16.876 L37.121,16.876 L37.121,18.562 C37.121,22.749 40.527,26.156 44.714,26.156 C48.901,26.156 52.307,22.749 52.307,18.562 L52.313,18.562 L52.313,11.608 Z"></path>
</symbol>
<symbol id="icon2" viewBox="0 0 54 54">
	<path fill-rule="evenodd" fill="rgb(241, 100, 30)" d="M49.769,54.000 L4.305,53.997 L4.297,53.997 C1.896,53.997 0.001,52.101 0.000,49.772 L0.000,49.771 L0.000,4.227 C0.000,1.896 1.898,-0.000 4.232,-0.000 C6.596,-0.000 8.519,1.896 8.519,4.227 L8.516,6.765 L45.558,6.765 L45.558,4.227 C45.559,1.896 47.448,-0.000 49.769,-0.000 C52.102,-0.000 54.000,1.896 54.000,4.227 L54.000,49.771 L54.000,49.772 C53.999,52.103 52.101,54.000 49.769,54.000 ZM4.232,1.687 C2.829,1.687 1.689,2.827 1.689,4.227 L1.689,46.391 C2.417,45.841 3.301,45.543 4.231,45.543 L4.232,45.543 C5.187,45.543 6.069,45.861 6.778,46.397 L6.831,4.226 C6.831,2.850 5.641,1.687 4.232,1.687 ZM52.311,4.227 C52.311,2.827 51.171,1.687 49.769,1.687 C48.378,1.687 47.247,2.826 47.246,4.227 L47.246,46.398 C47.953,45.868 48.820,45.543 49.769,45.543 L49.769,45.543 C50.703,45.543 51.581,45.858 52.311,46.412 L52.311,4.227 ZM51.567,47.975 C51.087,47.495 50.448,47.231 49.769,47.231 L49.769,47.231 C48.434,47.231 47.348,48.268 47.246,49.576 L47.246,49.771 L47.227,49.771 L45.558,49.771 L45.558,49.770 L45.538,49.770 C45.538,49.704 45.554,49.641 45.558,49.576 L45.558,8.452 L8.514,8.452 L8.463,49.772 L6.774,49.771 C6.774,48.371 5.634,47.231 4.232,47.231 L4.231,47.231 C3.552,47.231 2.914,47.495 2.433,47.975 C1.954,48.455 1.689,49.093 1.689,49.772 C1.690,51.172 2.830,52.313 4.232,52.313 L49.717,52.309 L49.812,52.313 C51.170,52.313 52.310,51.172 52.311,49.771 C52.311,49.093 52.047,48.455 51.567,47.975 ZM10.134,13.549 L33.809,13.549 L33.809,15.236 L27.057,15.236 L27.057,20.262 L25.368,20.262 L25.368,15.236 L11.822,15.236 L11.822,29.562 L25.368,29.562 L25.368,23.693 L27.057,23.693 L27.057,37.122 L25.368,37.122 L25.368,31.250 L11.822,31.250 L11.822,45.576 L25.368,45.576 L25.368,40.549 L27.057,40.549 L27.057,45.576 L42.181,45.576 L42.181,31.251 L30.433,31.251 L30.433,29.563 L42.181,29.563 L42.181,15.236 L38.875,15.236 L38.875,13.549 L43.869,13.549 L43.869,47.263 L10.134,47.263 L10.134,13.549 Z"></path>
</symbol>
<symbol id="icon3" viewBox="0 0 54 54">
	<path fill-rule="evenodd" fill="rgb(241, 100, 30)" d="M45.000,7.447 L41.250,7.447 L39.375,7.447 L26.250,7.447 L26.250,14.895 L18.750,14.895 L18.750,22.340 L-0.000,22.340 L-0.000,29.787 L-0.000,31.649 L-0.000,37.243 L-0.000,39.097 L-0.000,44.691 L-0.000,46.552 L-0.000,54.000 L60.000,54.000 L60.000,46.552 L60.000,44.691 L60.000,39.097 L60.000,37.243 L60.000,31.649 L60.000,29.787 L60.000,24.204 L60.000,22.340 L60.000,16.756 L60.000,14.895 L60.000,9.309 L60.000,7.447 L60.000,-0.000 L45.000,-0.000 L45.000,7.447 ZM41.250,9.309 L45.000,9.309 L52.500,9.309 L52.500,14.895 L46.875,14.895 L45.000,14.895 L41.250,14.895 L41.250,9.309 ZM43.594,37.235 L30.937,37.235 L30.937,31.649 L43.594,31.649 L43.594,37.235 ZM51.563,44.691 L38.437,44.691 L38.437,39.105 L51.563,39.105 L51.563,44.691 ZM16.406,31.649 L29.062,31.649 L29.062,37.235 L16.406,37.235 L16.406,31.649 ZM22.500,44.691 L9.375,44.691 L9.375,39.105 L22.500,39.105 L22.500,44.691 ZM24.375,29.787 L24.375,24.204 L31.875,24.204 L33.750,24.204 L36.562,24.204 L36.562,29.787 L24.375,29.787 ZM24.375,39.105 L36.562,39.105 L36.562,44.691 L24.375,44.691 L24.375,39.105 ZM38.437,29.787 L38.437,24.204 L45.000,24.204 L46.875,24.204 L51.563,24.204 L51.563,29.787 L38.437,29.787 ZM41.250,16.756 L45.000,16.756 L45.000,22.340 L33.750,22.340 L33.750,16.756 L39.375,16.756 L41.250,16.756 ZM28.125,9.309 L39.375,9.309 L39.375,14.895 L33.750,14.895 L31.875,14.895 L28.125,14.895 L28.125,9.309 ZM20.625,16.756 L26.250,16.756 L31.875,16.756 L31.875,22.340 L20.625,22.340 L20.625,16.756 ZM9.375,24.202 L18.750,24.202 L18.750,24.204 L22.500,24.204 L22.500,29.787 L9.375,29.787 L9.375,24.202 ZM1.875,24.202 L7.500,24.202 L7.500,29.787 L1.875,29.787 L1.875,24.202 ZM1.875,31.649 L14.531,31.649 L14.531,37.235 L1.875,37.235 L1.875,31.649 ZM1.875,39.105 L7.500,39.105 L7.500,44.691 L1.875,44.691 L1.875,39.105 ZM14.531,52.138 L1.875,52.138 L1.875,46.552 L14.531,46.552 L14.531,52.138 ZM29.062,52.138 L16.406,52.138 L16.406,46.552 L29.062,46.552 L29.062,52.138 ZM43.594,52.138 L30.937,52.138 L30.937,46.552 L43.594,46.552 L43.594,52.138 ZM58.125,52.138 L45.469,52.138 L45.469,46.552 L58.125,46.552 L58.125,52.138 ZM58.125,44.691 L53.438,44.691 L53.438,39.105 L58.125,39.105 L58.125,44.691 ZM58.125,37.235 L45.469,37.235 L45.469,31.649 L58.125,31.649 L58.125,37.235 ZM58.125,29.787 L53.438,29.787 L53.438,24.204 L58.125,24.204 L58.125,29.787 ZM58.125,22.340 L46.875,22.340 L46.875,16.756 L52.500,16.756 L54.375,16.756 L58.125,16.756 L58.125,22.340 ZM58.125,14.895 L54.375,14.895 L54.375,9.309 L58.125,9.309 L58.125,14.895 ZM46.875,1.861 L58.125,1.861 L58.125,7.447 L54.375,7.447 L52.500,7.447 L46.875,7.447 L46.875,1.861 Z"></path>
</symbol>
<symbol id="icon4" viewBox="0 0 54 54">
	<path fill-rule="evenodd" fill="rgb(241, 100, 30)" d="M47.250,54.000 L-0.000,54.000 L-0.000,40.500 L30.954,40.500 L4.713,14.258 L14.258,4.713 L33.750,24.204 L33.750,-0.000 L37.125,-0.000 L37.969,-0.000 L40.500,-0.000 L41.344,-0.000 L54.000,-0.000 L54.000,47.250 C54.000,50.972 50.972,54.000 47.250,54.000 ZM37.125,1.687 L35.437,1.687 L35.437,25.892 L37.125,27.580 L37.125,1.687 ZM37.125,29.965 L14.258,7.099 L7.099,14.258 L33.340,40.500 L37.125,40.500 L37.125,29.965 ZM40.500,1.687 L38.812,1.687 L38.812,40.500 L40.500,40.500 L40.500,1.687 ZM40.500,47.250 L40.500,42.187 L1.687,42.187 L1.687,52.312 L42.800,52.312 C41.393,51.074 40.500,49.266 40.500,47.250 ZM52.312,1.687 L42.187,1.687 L42.187,47.250 C42.187,50.042 44.458,52.312 47.250,52.312 C50.042,52.312 52.312,50.042 52.312,47.250 L52.312,1.687 ZM43.875,37.125 L50.625,37.125 L50.625,43.875 L43.875,43.875 L43.875,37.125 ZM45.562,42.187 L48.937,42.187 L48.937,38.812 L45.562,38.812 L45.562,42.187 ZM43.875,28.687 L50.625,28.687 L50.625,35.437 L43.875,35.437 L43.875,28.687 ZM45.562,33.750 L48.937,33.750 L48.937,30.375 L45.562,30.375 L45.562,33.750 ZM43.875,20.250 L50.625,20.250 L50.625,27.000 L43.875,27.000 L43.875,20.250 ZM45.562,25.312 L48.937,25.312 L48.937,21.937 L45.562,21.937 L45.562,25.312 ZM43.875,11.812 L50.625,11.812 L50.625,18.562 L43.875,18.562 L43.875,11.812 ZM45.562,16.875 L48.937,16.875 L48.937,13.500 L45.562,13.500 L45.562,16.875 ZM43.875,3.375 L50.625,3.375 L50.625,10.125 L43.875,10.125 L43.875,3.375 ZM45.562,8.437 L48.937,8.437 L48.937,5.062 L45.562,5.062 L45.562,8.437 ZM37.125,43.875 L38.812,43.875 L38.812,50.625 L37.125,50.625 L37.125,43.875 ZM28.687,43.875 L35.437,43.875 L35.437,50.625 L28.687,50.625 L28.687,43.875 ZM30.375,48.937 L33.750,48.937 L33.750,45.562 L30.375,45.562 L30.375,48.937 ZM20.250,43.875 L27.000,43.875 L27.000,50.625 L20.250,50.625 L20.250,43.875 ZM21.937,48.937 L25.312,48.937 L25.312,45.562 L21.937,45.562 L21.937,48.937 ZM11.812,43.875 L18.562,43.875 L18.562,50.625 L11.812,50.625 L11.812,43.875 ZM13.500,48.937 L16.875,48.937 L16.875,45.562 L13.500,45.562 L13.500,48.937 ZM3.375,43.875 L10.125,43.875 L10.125,50.625 L3.375,50.625 L3.375,43.875 ZM5.062,48.937 L8.437,48.937 L8.437,45.562 L5.062,45.562 L5.062,48.937 ZM27.385,32.158 L32.158,27.384 L36.930,32.158 L32.158,36.931 L27.385,32.158 ZM32.158,29.771 L29.771,32.158 L32.158,34.544 L34.544,32.158 L32.158,29.771 ZM21.418,26.192 L26.192,21.418 L30.964,26.192 L26.192,30.964 L21.418,26.192 ZM26.192,23.805 L23.805,26.192 L26.192,28.577 L28.578,26.192 L26.192,23.805 ZM15.452,20.225 L20.225,15.452 L24.997,20.225 L20.225,24.998 L15.452,20.225 ZM20.225,17.838 L17.838,20.225 L20.225,22.612 L22.611,20.225 L20.225,17.838 ZM9.487,14.259 L14.259,9.486 L19.032,14.259 L14.259,19.032 L9.487,14.259 ZM14.259,11.872 L11.873,14.259 L14.259,16.646 L16.646,14.259 L14.259,11.872 Z"></path>
</symbol>









</defs>
</svg>
